                                                                        S0000001
,,31HOpen CASCADE IGES processor 8.0,13HFilename.iges,                  G0000001
16HOpen CASCADE 8.0,31HOpen CASCADE IGES processor 8.0,32,308,15,308,15,G0000002
,1.,2,2HMM,1,0.01,15H20261005.214643,1E-07,240.,4Hroot,,11,0,           G0000003
15H20261005.214643,;                                                    G0000004
     186       1       0       0       0       0       0       000000000D0000001
     186       0       0       1       0                               0D0000002
     514       2       0       0       0       0       0       000010000D0000003
     514       0       0       1       1                               0D0000004
     510       3       0       0       0       0       0       000010000D0000005
     510       0       0       1       1                               0D0000006
     120       4       0       0       0       0       0       000010000D0000007
     120       0       0       1       0                               0D0000008
     110       5       0       0       0       0       0       000010000D0000009
     110       0       0       1       0                               0D0000010
     100       6       0       0       0       0      13       000010000D0000011
     100       0       0       1       0                               0D0000012
     124       7       0       0       0       0       0       000000000D0000013
     124       0       0       2       0                               0D0000014
     508       9       0       0       0       0       0       000010000D0000015
     508       0       0       2       1                               0D0000016
     502      11       0       0       0       0       0       000010000D0000017
     502       0       0       1       1                               0D0000018
     110      12       0       0       0       0       0       000010000D0000019
     110       0       0       1       0                               0D0000020
     504      13       0       0       0       0       0       000010001D0000021
     504       0       0       1       1                               0D0000022
     100      14       0       0       0       0      25       000010000D0000023
     100       0       0       1       0                               0D0000024
     124      15       0       0       0       0       0       000000000D0000025
     124       0       0       2       0                               0D0000026
     100      17       0       0       0       0      29       000010000D0000027
     100       0       0       1       0                               0D0000028
     124      18       0       0       0       0       0       000000000D0000029
     124       0       0       1       0                               0D0000030
     110      19       0       0       0       0       0       000010000D0000031
     110       0       0       2       0                               0D0000032
     110      21       0       0       0       0       0       000010000D0000033
     110       0       0       1       0                               0D0000034
     110      22       0       0       0       0       0       000010000D0000035
     110       0       0       1       0                               0D0000036
     510      23       0       0       0       0       0       000010000D0000037
     510       0       0       1       1                               0D0000038
     190      24       0       0       0       0       0       000010000D0000039
     190       0       0       1       1                               0D0000040
     116      25       0       0       0       0       0       000010400D0000041
     116       0       0       1       0                               0D0000042
     123      26       0       0       0       0       0       000010200D0000043
     123       0       0       1       0                               0D0000044
     123      27       0       0       0       0       0       000010200D0000045
     123       0       0       1       0                               0D0000046
     508      28       0       0       0       0       0       000010000D0000047
     508       0       0       1       1                               0D0000048
186,3,1,0;                                                       0000001P0000001
514,2,5,1,37,1;                                                  0000003P0000002
510,7,1,1,15;                                                    0000005P0000003
120,9,11,0.,6.283185307;                                         0000007P0000004
110,0.,0.,0.,-1.,0.,0.;                                          0000009P0000005
100,0.,0.,0.,740.,0.,700.,240.;                                  0000011P0000006
124,-0.324324324,0.945945946,0.,240.,0.945945946,0.324324324,0., 0000013P0000007
-700.,0.,0.,-1.,0.;                                              0000013P0000008
508,4,1,17,1,1,1,0,19,0,21,1,1,1,0,31,0,21,2,0,1,0,33,0,21,1,0,  0000015P0000009
1,0,35;                                                          0000015P0000010
502,2,0.,0.,0.,240.,40.,0.;                                      0000017P0000011
110,0.,6.283185307,0.,-1.395147399E-15,0.,0.;                    0000019P0000012
504,2,23,17,1,17,2,27,17,2,17,2;                                 0000021P0000013
100,0.,0.,0.,740.,0.,700.,240.;                                  0000023P0000014
124,-0.324324324,0.945945946,0.,240.,0.945945946,0.324324324,0., 0000025P0000015
-700.,0.,0.,-1.,0.;                                              0000025P0000016
100,0.,0.,0.,40.,0.,40.,0.;                                      0000027P0000017
124,0.,0.,1.,240.,1.,0.,0.,0.,0.,1.,0.,0.;                       0000029P0000018
110,-1.395147399E-15,1.776356839E-15,0.,0.330297355,             0000031P0000019
1.849697585E-15,0.;                                              0000031P0000020
110,0.330297355,0.,0.,0.330297355,6.283185307,0.;                0000033P0000021
110,0.330297355,6.283185307,0.,0.,6.283185307,0.;                0000035P0000022
510,39,1,1,47;                                                   0000037P0000023
190,41,43,45;                                                    0000039P0000024
116,240.,0.,0.,0;                                                0000041P0000025
123,1.,0.,0.;                                                    0000043P0000026
123,-0.,1.,0.;                                                   0000045P0000027
508,1,0,21,2,1,0;                                                0000047P0000028
S      1G      4D     48P     28                                        T0000001
