                                                                        S0000001
,,31HOpen CASCADE IGES processor 8.0,13HFilename.iges,                  G0000001
16HOpen CASCADE 8.0,31HOpen CASCADE IGES processor 8.0,32,308,15,308,15,G0000002
,1.,2,2HMM,1,0.01,15H20261005.214643,1E-07,240.,4Hroot,,11,0,           G0000003
15H20261005.214643,;                                                    G0000004
     402       1       0       0       0       0       0       000000000D0000001
     402       0       0       1       1                               0D0000002
     186       2       0       0       0       0       0       000020000D0000003
     186       0       0       1       0                               0D0000004
     514       3       0       0       0       0       0       000010000D0000005
     514       0       0       1       1                               0D0000006
     510       4       0       0       0       0       0       000010000D0000007
     510       0       0       1       1                               0D0000008
     120       5       0       0       0       0       0       000010000D0000009
     120       0       0       1       0                               0D0000010
     110       6       0       0       0       0       0       000010000D0000011
     110       0       0       1       0                               0D0000012
     100       7       0       0       0       0      15       000010000D0000013
     100       0       0       1       0                               0D0000014
     124       8       0       0       0       0       0       000000000D0000015
     124       0       0       2       0                               0D0000016
     508      10       0       0       0       0       0       000010000D0000017
     508       0       0       2       1                               0D0000018
     502      12       0       0       0       0       0       000010000D0000019
     502       0       0       1       1                               0D0000020
     110      13       0       0       0       0       0       000010000D0000021
     110       0       0       1       0                               0D0000022
     504      14       0       0       0       0       0       000010001D0000023
     504       0       0       1       1                               0D0000024
     100      15       0       0       0       0      27       000010000D0000025
     100       0       0       1       0                               0D0000026
     124      16       0       0       0       0       0       000000000D0000027
     124       0       0       2       0                               0D0000028
     100      18       0       0       0       0      31       000010000D0000029
     100       0       0       1       0                               0D0000030
     124      19       0       0       0       0       0       000000000D0000031
     124       0       0       1       0                               0D0000032
     100      20       0       0       0       0      35       000010000D0000033
     100       0       0       1       0                               0D0000034
     124      21       0       0       0       0       0       000000000D0000035
     124       0       0       1       0                               0D0000036
     100      22       0       0       0       0      39       000010000D0000037
     100       0       0       1       0                               0D0000038
     124      23       0       0       0       0       0       000000000D0000039
     124       0       0       2       0                               0D0000040
     110      25       0       0       0       0       0       000010000D0000041
     110       0       0       2       0                               0D0000042
     110      27       0       0       0       0       0       000010000D0000043
     110       0       0       1       0                               0D0000044
     110      28       0       0       0       0       0       000010000D0000045
     110       0       0       1       0                               0D0000046
     510      29       0       0       0       0       0       000010000D0000047
     510       0       0       1       1                               0D0000048
     190      30       0       0       0       0       0       000010000D0000049
     190       0       0       1       1                               0D0000050
     116      31       0       0       0       0       0       000010400D0000051
     116       0       0       1       0                               0D0000052
     123      32       0       0       0       0       0       000010200D0000053
     123       0       0       1       0                               0D0000054
     123      33       0       0       0       0       0       000010200D0000055
     123       0       0       1       0                               0D0000056
     508      34       0       0       0       0       0       000010000D0000057
     508       0       0       1       1                               0D0000058
     508      35       0       0       0       0       0       000010000D0000059
     508       0       0       1       1                               0D0000060
     510      36       0       0       0       0       0       000010000D0000061
     510       0       0       1       1                               0D0000062
     120      37       0       0       0       0       0       000010000D0000063
     120       0       0       1       0                               0D0000064
     110      38       0       0       0       0       0       000010000D0000065
     110       0       0       1       0                               0D0000066
     100      39       0       0       0       0      69       000010000D0000067
     100       0       0       1       0                               0D0000068
     124      40       0       0       0       0       0       000000000D0000069
     124       0       0       2       0                               0D0000070
     508      42       0       0       0       0       0       000010000D0000071
     508       0       0       2       1                               0D0000072
     110      44       0       0       0       0       0       000010000D0000073
     110       0       0       1       0                               0D0000074
     110      45       0       0       0       0       0       000010000D0000075
     110       0       0       2       0                               0D0000076
     110      47       0       0       0       0       0       000010000D0000077
     110       0       0       1       0                               0D0000078
     110      48       0       0       0       0       0       000010000D0000079
     110       0       0       1       0                               0D0000080
402,1,3;                                                         0000001P0000001
186,5,1,0;                                                       0000003P0000002
514,3,7,1,47,1,61,0;                                             0000005P0000003
510,9,1,1,17;                                                    0000007P0000004
120,11,13,0.,6.283185307;                                        0000009P0000005
110,0.,0.,0.,-1.,0.,0.;                                          0000011P0000006
100,0.,0.,0.,740.,0.,700.,240.;                                  0000013P0000007
124,-0.324324324,0.945945946,0.,240.,0.945945946,0.324324324,0., 0000015P0000008
-700.,0.,0.,-1.,0.;                                              0000015P0000009
508,4,1,19,1,1,1,0,21,0,23,1,1,1,0,41,0,23,2,0,1,0,43,0,23,1,0,  0000017P0000010
1,0,45;                                                          0000017P0000011
502,4,0.,0.,0.,240.,40.,0.,240.,38.,0.,5.914545518,0.,0.;        0000019P0000012
110,0.,6.283185307,0.,-1.395147399E-15,0.,0.;                    0000021P0000013
504,4,25,19,1,19,2,29,19,2,19,2,33,19,3,19,3,37,19,4,19,3;       0000023P0000014
100,0.,0.,0.,740.,0.,700.,240.;                                  0000025P0000015
124,-0.324324324,0.945945946,0.,240.,0.945945946,0.324324324,0., 0000027P0000016
-700.,0.,0.,-1.,0.;                                              0000027P0000017
100,0.,0.,0.,40.,0.,40.,0.;                                      0000029P0000018
124,0.,0.,1.,240.,1.,0.,0.,0.,0.,1.,0.,0.;                       0000031P0000019
100,0.,0.,0.,38.,0.,38.,0.;                                      0000033P0000020
124,0.,0.,1.,240.,1.,0.,0.,0.,0.,1.,0.,0.;                       0000035P0000021
100,0.,0.,0.,740.,7.105427358E-15,702.,234.085454482;            0000037P0000022
124,-0.316331695,0.948648649,0.,240.,0.948648649,0.316331695,0., 0000039P0000023
-702.,0.,0.,-1.,0.;                                              0000039P0000024
110,-1.395147399E-15,1.776356839E-15,0.,0.330297355,             0000041P0000025
1.849697585E-15,0.;                                              0000041P0000026
110,0.330297355,0.,0.,0.330297355,6.283185307,0.;                0000043P0000027
110,0.330297355,6.283185307,0.,0.,6.283185307,0.;                0000045P0000028
510,49,2,1,57,59;                                                0000047P0000029
190,51,53,55;                                                    0000049P0000030
116,240.,0.,0.,0;                                                0000051P0000031
123,1.,0.,0.;                                                    0000053P0000032
123,-0.,1.,0.;                                                   0000055P0000033
508,1,0,23,2,1,0;                                                0000057P0000034
508,1,0,23,3,0,0;                                                0000059P0000035
510,63,1,1,71;                                                   0000061P0000036
120,65,67,0.,6.283185307;                                        0000063P0000037
110,0.,0.,0.,-1.,0.,0.;                                          0000065P0000038
100,0.,0.,0.,740.,7.105427358E-15,702.,234.085454482;            0000067P0000039
124,-0.316331695,0.948648649,0.,240.,0.948648649,0.316331695,0., 0000069P0000040
-702.,0.,0.,-1.,0.;                                              0000069P0000041
508,4,1,19,4,1,1,0,73,0,23,4,1,1,0,75,0,23,3,0,1,0,77,0,23,4,0,  0000071P0000042
1,0,79;                                                          0000071P0000043
110,0.,6.283185307,0.,-1.395147399E-15,0.,0.;                    0000073P0000044
110,-1.395147399E-15,1.776356839E-15,0.,0.321860107,             0000075P0000045
1.84782414E-15,0.;                                               0000075P0000046
110,0.321860107,0.,0.,0.321860107,6.283185307,0.;                0000077P0000047
110,0.321860107,6.283185307,0.,0.,6.283185307,0.;                0000079P0000048
S      1G      4D     80P     48                                        T0000001
