                                                                        S0000001
,,31HOpen CASCADE IGES processor 8.0,13HFilename.iges,                  G0000001
16HOpen CASCADE 8.0,31HOpen CASCADE IGES processor 8.0,32,308,15,308,15,G0000002
,1.,2,2HMM,1,0.01,15H20261005.214643,1E-07,300.,4Hroot,,11,0,           G0000003
15H20261005.214643,;                                                    G0000004
     402       1       0       0       0       0       0       000000000D0000001
     402       0       0       1       1                               0D0000002
     186       2       0       0       0       0       0       000020000D0000003
     186       0       0       1       0                               0D0000004
     514       3       0       0       0       0       0       000010000D0000005
     514       0       0       1       1                               0D0000006
     510       4       0       0       0       0       0       000010000D0000007
     510       0       0       1       1                               0D0000008
     192       5       0       0       0       0       0       000010000D0000009
     192       0       0       1       1                               0D0000010
     116       6       0       0       0       0       0       000010400D0000011
     116       0       0       1       0                               0D0000012
     123       7       0       0       0       0       0       000010200D0000013
     123       0       0       1       0                               0D0000014
     123       8       0       0       0       0       0       000010200D0000015
     123       0       0       1       0                               0D0000016
     508       9       0       0       0       0       0       000010000D0000017
     508       0       0       2       1                               0D0000018
     504      11       0       0       0       0       0       000010001D0000019
     504       0       0       2       1                               0D0000020
     100      13       0       0       0       0      23       000010000D0000021
     100       0       0       1       0                               0D0000022
     124      14       0       0       0       0       0       000000000D0000023
     124       0       0       1       0                               0D0000024
     502      15       0       0       0       0       0       000010000D0000025
     502       0       0       2       1                               0D0000026
     110      17       0       0       0       0       0       000010000D0000027
     110       0       0       1       0                               0D0000028
     100      18       0       0       0       0      31       000010000D0000029
     100       0       0       1       0                               0D0000030
     124      19       0       0       0       0       0       000000000D0000031
     124       0       0       1       0                               0D0000032
     100      20       0       0       0       0      35       000010000D0000033
     100       0       0       1       0                               0D0000034
     124      21       0       0       0       0       0       000000000D0000035
     124       0       0       1       0                               0D0000036
     100      22       0       0       0       0      39       000010000D0000037
     100       0       0       1       0                               0D0000038
     124      23       0       0       0       0       0       000000000D0000039
     124       0       0       1       0                               0D0000040
     110      24       0       0       0       0       0       000010000D0000041
     110       0       0       1       0                               0D0000042
     110      25       0       0       0       0       0       000010000D0000043
     110       0       0       1       0                               0D0000044
     110      26       0       0       0       0       0       000010000D0000045
     110       0       0       1       0                               0D0000046
     110      27       0       0       0       0       0       000010000D0000047
     110       0       0       1       0                               0D0000048
     110      28       0       0       0       0       0       000010000D0000049
     110       0       0       1       0                               0D0000050
     510      29       0       0       0       0       0       000010000D0000051
     510       0       0       1       1                               0D0000052
     190      30       0       0       0       0       0       000010000D0000053
     190       0       0       1       1                               0D0000054
     116      31       0       0       0       0       0       000010400D0000055
     116       0       0       1       0                               0D0000056
     123      32       0       0       0       0       0       000010200D0000057
     123       0       0       1       0                               0D0000058
     123      33       0       0       0       0       0       000010200D0000059
     123       0       0       1       0                               0D0000060
     508      34       0       0       0       0       0       000010000D0000061
     508       0       0       1       1                               0D0000062
     508      35       0       0       0       0       0       000010000D0000063
     508       0       0       1       1                               0D0000064
     510      36       0       0       0       0       0       000010000D0000065
     510       0       0       1       1                               0D0000066
     190      37       0       0       0       0       0       000010000D0000067
     190       0       0       1       1                               0D0000068
     116      38       0       0       0       0       0       000010400D0000069
     116       0       0       1       0                               0D0000070
     123      39       0       0       0       0       0       000010200D0000071
     123       0       0       1       0                               0D0000072
     123      40       0       0       0       0       0       000010200D0000073
     123       0       0       1       0                               0D0000074
     508      41       0       0       0       0       0       000010000D0000075
     508       0       0       1       1                               0D0000076
     508      42       0       0       0       0       0       000010000D0000077
     508       0       0       1       1                               0D0000078
     510      43       0       0       0       0       0       000010000D0000079
     510       0       0       1       1                               0D0000080
     192      44       0       0       0       0       0       000010000D0000081
     192       0       0       1       1                               0D0000082
     116      45       0       0       0       0       0       000010400D0000083
     116       0       0       1       0                               0D0000084
     123      46       0       0       0       0       0       000010200D0000085
     123       0       0       1       0                               0D0000086
     123      47       0       0       0       0       0       000010200D0000087
     123       0       0       1       0                               0D0000088
     508      48       0       0       0       0       0       000010000D0000089
     508       0       0       2       1                               0D0000090
     110      50       0       0       0       0       0       000010000D0000091
     110       0       0       1       0                               0D0000092
     110      51       0       0       0       0       0       000010000D0000093
     110       0       0       1       0                               0D0000094
     110      52       0       0       0       0       0       000010000D0000095
     110       0       0       1       0                               0D0000096
     110      53       0       0       0       0       0       000010000D0000097
     110       0       0       1       0                               0D0000098
402,1,3;                                                         0000001P0000001
186,5,1,0;                                                       0000003P0000002
514,4,7,1,51,1,65,0,79,0;                                        0000005P0000003
510,9,1,1,17;                                                    0000007P0000004
192,11,13,40.,15;                                                0000009P0000005
116,0.,0.,0.,0;                                                  0000011P0000006
123,1.,0.,0.;                                                    0000013P0000007
123,-0.,0.,1.;                                                   0000015P0000008
508,4,0,19,1,0,1,0,43,0,19,2,0,1,0,45,0,19,3,1,1,0,47,0,19,2,1,  0000017P0000009
1,0,49;                                                          0000017P0000010
504,6,21,25,1,25,1,27,25,2,25,1,29,25,2,25,2,33,25,3,25,3,37,25, 0000019P0000011
4,25,4,41,25,4,25,3;                                             0000019P0000012
100,0.,0.,0.,40.,0.,40.,0.;                                      0000021P0000013
124,0.,0.,1.,300.,0.,-1.,0.,0.,1.,0.,0.,0.;                      0000023P0000014
502,4,300.,9.797174393E-15,40.,0.,9.797174393E-15,40.,300.,      0000025P0000015
9.307315674E-15,38.,0.,9.307315674E-15,38.;                      0000025P0000016
110,0.,9.797174393E-15,40.,300.,9.797174393E-15,40.;             0000027P0000017
100,0.,0.,0.,40.,0.,40.,0.;                                      0000029P0000018
124,0.,0.,1.,0.,0.,-1.,0.,0.,1.,0.,0.,0.;                        0000031P0000019
100,0.,0.,0.,38.,0.,38.,0.;                                      0000033P0000020
124,0.,0.,1.,300.,0.,-1.,0.,0.,1.,0.,0.,0.;                      0000035P0000021
100,0.,0.,0.,38.,0.,38.,0.;                                      0000037P0000022
124,0.,0.,1.,0.,0.,-1.,0.,0.,1.,0.,0.,0.;                        0000039P0000023
110,0.,9.307315674E-15,38.,300.,9.307315674E-15,38.;             0000041P0000024
110,360.,300.,0.,0.,300.,0.;                                     0000043P0000025
110,0.,300.,0.,0.,0.,0.;                                         0000045P0000026
110,0.,0.,0.,360.,0.,0.;                                         0000047P0000027
110,360.,0.,0.,360.,300.,0.;                                     0000049P0000028
510,53,2,1,61,63;                                                0000051P0000029
190,55,57,59;                                                    0000053P0000030
116,300.,0.,0.,0;                                                0000055P0000031
123,1.,0.,0.;                                                    0000057P0000032
123,-0.,0.,1.;                                                   0000059P0000033
508,1,0,19,1,1,0;                                                0000061P0000034
508,1,0,19,4,0,0;                                                0000063P0000035
510,67,2,1,75,77;                                                0000065P0000036
190,69,71,73;                                                    0000067P0000037
116,0.,0.,0.,0;                                                  0000069P0000038
123,1.,0.,0.;                                                    0000071P0000039
123,-0.,0.,1.;                                                   0000073P0000040
508,1,0,19,3,1,0;                                                0000075P0000041
508,1,0,19,5,0,0;                                                0000077P0000042
510,81,1,1,89;                                                   0000079P0000043
192,83,85,38.,87;                                                0000081P0000044
116,-1.,0.,0.,0;                                                 0000083P0000045
123,1.,0.,0.;                                                    0000085P0000046
123,-0.,0.,1.;                                                   0000087P0000047
508,4,0,19,4,0,1,0,91,0,19,6,0,1,0,93,0,19,5,1,1,0,95,0,19,6,1,  0000089P0000048
1,0,97;                                                          0000089P0000049
110,360.,301.,0.,0.,301.,0.;                                     0000091P0000050
110,0.,301.,0.,0.,1.,0.;                                         0000093P0000051
110,0.,1.,0.,360.,1.,0.;                                         0000095P0000052
110,360.,1.,0.,360.,301.,0.;                                     0000097P0000053
S      1G      4D     98P     53                                        T0000001
